<?xml version="1.0" encoding="UTF-8" standalone="no"?>
<!-- Created with Inkscape (http://www.inkscape.org/) -->

<svg
   xmlns:dc="http://purl.org/dc/elements/1.1/"
   xmlns:cc="http://creativecommons.org/ns#"
   xmlns:rdf="http://www.w3.org/1999/02/22-rdf-syntax-ns#"
   xmlns:svg="http://www.w3.org/2000/svg"
   xmlns="http://www.w3.org/2000/svg"
   version="1.1"
   width="676.7475"
   height="244.02875"
   id="svg3207">
  <defs
     id="defs3209" />
  <metadata
     id="metadata3212">
    <rdf:RDF>
      <cc:Work
         rdf:about="">
        <dc:format>image/svg+xml</dc:format>
        <dc:type
           rdf:resource="http://purl.org/dc/dcmitype/StillImage" />
        <dc:title></dc:title>
      </cc:Work>
    </rdf:RDF>
  </metadata>
  <g
     transform="translate(-250.19768,-718.91924)"
     id="layer1">
    <path
       d="m 457.34393,757.80049 c 0,0 -3.88375,-17.60625 -23.84875,-17.60625 -19.96625,0 -30.225,0.29375 -30.225,0.29375 l 0,79.23125 c 0,0 24.9575,-27.585 54.07375,-6.4575 0,0.29375 0,-55.16625 0,-55.16625"
       id="path22"
       style="fill:#00b1de;fill-opacity:1;fill-rule:nonzero;stroke:none" />
    <path
       d="m 457.34518,848.06299 c 0,0 -39.6525,-24.8125 -54.07375,20.20625 l 0,91.56875 33.27625,0.25625 c 0,0 16.6375,-1.02375 21.07375,-17.3925 -0.27625,0.255 -0.27625,-94.63875 -0.27625,-94.63875"
       id="path24"
       style="fill:#f0884e;fill-opacity:1;fill-rule:nonzero;stroke:none" />
    <path
       d="m 307.60055,740.19424 0.27725,113.415 c 0,0 1.942,34.94 29.94688,32.445 0,0 28.00925,4.4375 30.50575,-32.72 -0.27675,-0.27625 -0.27675,-113.4175 -0.27675,-113.4175 l -60.45313,0.2775"
       id="path30"
       style="fill:#df80ab;fill-opacity:1;fill-rule:nonzero;stroke:none" />
    <path
       d="m 327.45305,885.05799 c 0,0 10.02538,2.76625 21.40425,-0.185 -0.184,-0.1825 -9.226,-1.355 -9.226,-1.355 l -8.05662,-0.245 -4.12163,1.785"
       id="path32"
       style="fill:#df80ab;fill-opacity:1;fill-rule:nonzero;stroke:none" />
    <path
       d="m 275.39205,879.24424 c 0,0 0.0341,1.765 0.19913,2.23 0,0.0662 -2.43013,0.135 -2.43013,0.135 l -0.26762,-1.1325 0.13337,-1.1 2.36525,-0.1325"
       id="path34"
       style="fill:#513478;fill-opacity:1;fill-rule:nonzero;stroke:none" />
    <path
       d="m 271.82755,740.19549 c 0,0 -16.083,1.385 -21.35204,19.41125 0.27783,-0.27625 -0.27783,179.13625 -0.27783,179.13625 0,0 2.77344,19.96375 22.18462,21.35125 l 95.66838,0.27875 -0.27588,-47.14 c 0,0 -82.0825,27.7275 -95.3925,-49.64 0.27638,0 -0.55475,-123.3975 -0.55475,-123.3975"
       id="path36"
       style="fill:#513478;fill-opacity:1;fill-rule:nonzero;stroke:none" />
    <path
       d="m 367.97743,912.90299 -0.14012,47.35 -8.73538,-11.0925 -0.89987,-23.295 3.604,-7.2075 4.71437,-4.16 1.457,-1.595"
       id="path38"
       style="fill:#513478;fill-opacity:1;fill-rule:nonzero;stroke:none" />
    <path
       d="m 272.10005,847.80674 c 0,0 -0.8325,60.7275 46.86375,68.4925 -0.55425,0 -5.82275,9.15125 -5.82275,9.15125 l -38.26812,-9.9825 -23.57027,-12.20125 3.05078,-35.21625 5.26855,-33 12.47806,12.75625"
       id="path40"
       style="fill:#513478;fill-opacity:1;fill-rule:nonzero;stroke:none" />
    <path
       d="m 502.88393,740.42549 15.9225,0 0,58.2875 c 0,18.49875 -6.1425,27.30125 -26.9525,27.30125 -21.04,0 -27.18125,-8.8025 -27.18125,-27.30125 l 0,-58.2875 15.92125,0 0,56.95125 c 0,8.02 0.57125,16.04625 11.37375,16.04625 10.345,0 10.91625,-8.02625 10.91625,-16.04625 l 0,-56.95125"
       id="path42"
       style="fill:#000000;fill-opacity:1;fill-rule:nonzero;stroke:none" />
    <path
       d="m 566.68393,740.42549 15.91625,0 0,83.58375 -16.6025,0 -12.395,-29.75875 c -4.20625,-9.91625 -7.62125,-20.05625 -11.36875,-33.20625 l -0.22875,0 c 0.565,6.9075 1.245,15.37875 1.7025,23.85 0.45625,8.3575 0.8,16.715 0.8,23.4 l 0,15.715 -15.9275,0 0,-83.58375 16.4925,0 12.39625,30.42625 c 4.09625,9.695 7.5075,19.6125 11.375,33.2075 l 0.2275,0 c -0.57,-7.58 -1.14125,-15.715 -1.59375,-23.73375 -0.4575,-8.0275 -0.79375,-16.0475 -0.79375,-23.52 l 0,-16.38"
       id="path44"
       style="fill:#000000;fill-opacity:1;fill-rule:nonzero;stroke:none" />
    <path
       d="m 592.60768,824.00924 15.916,0 0,-83.583 -15.916,0 0,83.583 z"
       id="path46"
       style="fill:#000000;fill-opacity:1;fill-rule:nonzero;stroke:none" />
    <path
       d="m 654.70143,740.42549 17.05875,0 -18.42375,83.58375 -21.26375,0 -18.88125,-83.58375 17.05875,0 10.00875,53.6025 c 0.90875,4.685 1.48125,9.47375 1.9325,14.26625 0.2275,2.2275 0.67875,4.56875 0.67875,6.91125 l 0.22875,0 c 0,-2.3425 0.4575,-4.68375 0.685,-6.91125 0.4575,-4.7925 1.0225,-9.58125 1.9325,-14.26625 l 8.985,-53.6025"
       id="path48"
       style="fill:#000000;fill-opacity:1;fill-rule:nonzero;stroke:none" />
    <path
       d="m 675.62768,824.00924 0,-83.58375 38.6675,0 0,6.4625 -31.27375,0 0,30.08875 28.42625,0 0,6.46625 -28.42625,0 0,34.105 31.84375,0 0,6.46125 -39.2375,0"
       id="path50"
       style="fill:#000000;fill-opacity:1;fill-rule:nonzero;stroke:none" />
    <path
       d="m 727.48518,778.20424 12.9625,0 c 2.5025,0 15.0125,-0.89 15.0125,-15.82375 0,-12.25875 -5.6825,-15.4925 -17.28625,-15.4925 l -10.68875,0 0,31.31625 z m 0,6.4675 0,39.3375 -7.3925,0 0,-83.58375 16.49375,0 c 15.57875,0 26.2675,4.4575 26.2675,21.395 0,8.135 -3.525,17.7225 -12.51125,19.61625 l 0,0.22375 c 9.89625,2.45125 11.26125,9.9175 11.37375,20.395 0.23,4.01 -0.33625,18.72125 3.86875,20.94875 l 0,1.005 -8.07875,0 c -3.1825,-7.02125 -2.95375,-21.28625 -3.41,-27.415 -0.795,-11.145 -9.32375,-11.9225 -18.99,-11.9225 l -7.62125,0"
       id="path52"
       style="fill:#000000;fill-opacity:1;fill-rule:nonzero;stroke:none" />
    <path
       d="m 794.81143,778.42799 c 12.505,5.12375 21.83375,8.9175 21.83375,24.0725 0,14.37375 -9.55125,23.51375 -24.45125,23.51375 -15.585,0 -23.77,-10.80875 -23.4275,-25.6325 l 7.27875,0 c -0.115,10.47625 4.31875,19.17125 16.035,19.17125 10.34625,0 17.1725,-6.46625 17.1725,-16.83 0,-12.59625 -9.32875,-14.60125 -19.1075,-18.38875 -11.49,-4.45625 -19.67,-9.47125 -19.67,-22.845 0,-13.59625 8.29375,-23.0675 22.17,-23.0675 13.30625,0 22.0625,9.02625 21.72625,22.17625 l -7.16875,0 c 0.45625,-9.24875 -5.115,-15.715 -14.665,-15.715 -9.6725,0 -14.67125,7.02125 -14.67125,16.16125 0,8.24125 2.72625,11.47625 10.3475,14.70875 l 6.5975,2.675"
       id="path54"
       style="fill:#000000;fill-opacity:1;fill-rule:nonzero;stroke:none" />
    <path
       d="m 824.48768,824.00924 7.39257,0 0,-83.583 -7.39257,0 0,83.583 z"
       id="path56"
       style="fill:#000000;fill-opacity:1;fill-rule:nonzero;stroke:none" />
    <path
       d="m 837.45018,746.88799 0,-6.4625 46.055,0 0,6.4625 -19.33125,0 0,77.12125 -7.3925,0 0,-77.12125 -19.33125,0"
       id="path58"
       style="fill:#000000;fill-opacity:1;fill-rule:nonzero;stroke:none" />
    <path
       d="m 898.29018,734.40549 12.625,-15.48625 8.8675,0 -15.68875,15.48625 -5.80375,0 z m -10.57375,89.60375 0,-83.58375 38.66375,0 0,6.4625 -31.2775,0 0,30.08875 28.43625,0 0,6.46625 -28.43625,0 0,34.105 31.8425,0 0,6.46125 -39.22875,0"
       id="path60"
       style="fill:#000000;fill-opacity:1;fill-rule:nonzero;stroke:none" />
    <path
       d="m 473.61268,951.58424 10.5,0 c 4.97625,0 10.9,0 15.47,-2.3925 13.46,-6.8675 14.1275,-31.51125 14.1275,-45.10125 0,-14.185 0.2675,-36.59 -13.0525,-44.65 -5.245,-3.1375 -13.44875,-2.83875 -19.505,-2.54375 l -7.54,0 0,94.6875 z m -8.74,-103.3475 18.02875,0 c 11.4375,0 21.66375,0.74875 29.8675,10.6025 6.72875,8.96375 9.6875,25.69125 9.6875,36.8875 0,12.69875 0.26875,29.57375 -3.90125,41.6675 -6.1875,19.26875 -17.0875,22.85125 -33.905,22.85125 l -19.7775,0 0,-112.00875"
       id="path62"
       style="fill:#000000;fill-opacity:1;fill-rule:nonzero;stroke:none" />
    <path
       d="m 526.35768,960.24549 0,-112.00875 45.7475,0 0,8.66 -37.00125,0 0,40.3275 33.6375,0 0,8.65875 -33.6375,0 0,45.70125 37.67,0 0,8.66125 -46.41625,0"
       id="path64"
       style="fill:#000000;fill-opacity:1;fill-rule:nonzero;stroke:none" />
    <path
       d="m 611.21018,895.26424 14.875,0 c 6.21625,-0.45125 11.085,-4.95375 11.085,-16.2075 0,-12.60875 -4.73125,-14.71 -11.895,-14.85875 l -14.065,0 0,31.06625 z m 0,16.51 0,48.47125 -18.9275,0 0,-112.5575 35.825,0 c 16.3625,0 28.80625,6.3075 28.80625,27.015 0,12.30625 -2.8475,25.21125 -15.5525,27.16375 l 0,0.29875 c 11.2225,1.65 14.6025,9.60875 14.6025,20.41125 0,4.65375 -0.5425,32.265 4.0575,35.56625 l 0,2.1025 -20.81875,0 c -2.30125,-7.2025 -1.89625,-21.0125 -2.0325,-28.51125 -0.13875,-6.90625 0,-16.3625 -6.4925,-18.465 -5.13375,-1.645 -10.6825,-1.495 -16.0875,-1.495 l -3.38,0"
       id="path66"
       style="fill:#000000;fill-opacity:1;fill-rule:nonzero;stroke:none" />
    <path
       d="m 682.32393,921.52424 c 0,9.3075 0.68,24.4625 13.65875,24.4625 13.52375,0 13.66125,-15.4525 13.66125,-26.26 l 0,-28.81625 c 0,-9.0025 0.39875,-28.9625 -13.66125,-28.9625 -14.86875,0 -13.65875,19.6625 -13.65875,28.3625 l 0,31.21375 z m -19.47,-26.5575 c 0.81125,-28.665 2.84625,-49.97375 33.12875,-49.97375 30.28625,0 32.31375,21.30875 33.12375,49.97375 l 0,16.0525 c 0,30.015 -2.0275,51.92875 -33.12375,51.92875 -31.095,0 -33.12875,-21.91375 -33.12875,-51.92875 l 0,-16.0525"
       id="path68"
       style="fill:#000000;fill-opacity:1;fill-rule:nonzero;stroke:none" />
    <path
       d="m 780.48893,847.68799 18.9275,0 0,78.4925 c 0,24.91375 -7.3025,36.7675 -32.04375,36.7675 -25.01,0 -32.3125,-11.85375 -32.3125,-36.7675 l 0,-78.4925 18.9275,0 0,76.68875 c 0,10.8075 0.67375,21.61 13.5225,21.61 12.3,0 12.97875,-10.8025 12.97875,-21.61 l 0,-76.68875"
       id="path70"
       style="fill:#000000;fill-opacity:1;fill-rule:nonzero;stroke:none" />
    <path
       d="m 805.76893,960.24549 0,-112.5575 53.27,0 0,16.51 -34.33875,0 0,28.36375 31.63625,0 0,16.51 -31.63625,0 0,34.665 34.33875,0 0,16.50875 -53.27,0"
       id="path72"
       style="fill:#000000;fill-opacity:1;fill-rule:nonzero;stroke:none" />
    <path
       d="m 907.84268,847.68799 18.93125,0 0,112.5575 -19.74375,0 -14.7325,-40.06875 c -4.99875,-13.3575 -9.055,-27.015 -13.52125,-44.725 l -0.27,0 c 0.68,9.3075 1.49125,20.715 2.0275,32.1175 0.53875,11.25375 0.95,22.5125 0.95,31.5175 l 0,21.15875 -18.93125,0 0,-112.5575 19.605,0 14.74,40.97125 c 4.865,13.05875 8.9225,26.415 13.515,44.725 l 0.275,0 c -0.68125,-10.20875 -1.355,-21.15875 -1.8975,-31.96875 -0.53625,-10.8025 -0.9475,-21.61125 -0.9475,-31.66375 l 0,-22.06375"
       id="path74"
       style="fill:#000000;fill-opacity:1;fill-rule:nonzero;stroke:none" />
  </g>
</svg>
